PathFileType	4	(X/Y/Z)	C:\Users\WrightLab\Desktop\Jo\P4V123.trc
DataRate	CameraRate	NumFrames	NumMarkers	Units	OrigDataRate	OrigDataStartFrame	OrigNumFrames
100.00	100.00	       18	19	mm	100.00	64	       504
Frame#	Time	Headset_Front			Headset_Back			Headset_Left			Headset_Right			Left_Shoulder			Right_Shoulder			Sternum			C7			Left Elbow			Right Elbow			Left Wrist			Right Wrist			Left ASIS			Right ASIS			S2			Left Knee			Right Knee			Left Ankle			Right Ankle			
		X1	Y1	Z1	X2	Y2	Z2	X3	Y3	Z3	X4	Y4	Z4	X5	Y5	Z5	X6	Y6	Z6	X7	Y7	Z7	X8	Y8	Z8	X9	Y9	Z9	X10	Y10	Z10	X11	Y11	Z11	X12	Y12	Z12	X13	Y13	Z13	X14	Y14	Z14	X15	Y15	Z15	X16	Y16	Z16	X17	Y17	Z17	X18	Y18	Z18	X19	Y19	Z19	

64	0.630	299.55862	1053.80017	1853.80701	-46.78296	1540.35706	1791.83691							-51.09574	1708.22620	1761.39136	229.00046	1553.28918	1882.18628				74.87981	1585.45239	1877.82275	-268.84482	1435.63379	1563.19238	399.25803	1220.20117	1932.39087	-308.39355	1417.32031	1254.35168	490.76266	969.89996	1783.88440	12.57349	1008.55139	1804.50647							88.46127	576.43201	1621.23340	236.67094	581.35791	1982.02332	211.28828	82.76031	1604.70618	48.12663	146.17981	2191.85913	
65	0.640	304.01132	1053.64014	1842.12524	-45.19318	1538.83960	1783.86414							-48.87629	1707.56372	1754.06201	232.10626	1552.82874	1872.05005				77.28223	1585.77393	1869.77625	-267.79108	1433.11072	1555.39429	403.13641	1219.95142	1920.63513	-310.17529	1415.15259	1247.49561	494.13852	969.90082	1771.09070	16.66817	1008.56610	1792.96252							91.82975	574.55914	1612.47070	242.80266	581.97833	1972.30334	214.11258	84.15336	1603.28125	50.24374	151.42909	2190.51880	
66	0.650	308.13806	1053.60083	1829.56580	-42.92556	1537.87439	1775.25549							-47.50753	1706.79480	1744.70630	234.30704	1552.41614	1861.56604				80.14413	1584.85608	1859.82422	-267.15536	1432.42041	1548.88135	406.95706	1220.00488	1908.75562	-310.79526	1411.82410	1240.47241	497.53717	969.94135	1761.00488	20.92476	1008.34369	1783.39746							94.33327	573.71637	1604.18921	249.73325	582.07159	1961.14746	215.73416	86.72432	1601.28699	53.40495	156.80161	2187.40918	
67	0.660	312.31775	1053.84839	1816.89124	-41.02116	1538.07642	1766.36487							-45.67075	1707.73804	1737.70789	236.99287	1553.15112	1852.53674				82.44416	1585.23511	1850.24939	-266.67096	1430.03870	1542.01709	409.95563	1220.34778	1897.66443	-312.27087	1409.67700	1234.46045	500.90363	970.78345	1750.26526	24.61840	1009.14630	1771.12122							97.54819	572.11237	1595.12720	257.65958	584.12378	1952.15833	218.41420	87.22767	1598.58630	57.06088	162.30287	2183.56079	
68	0.670	316.74197	1054.38037	1805.39197	-39.08733	1538.00073	1757.63623							-44.76694	1707.92224	1728.65637	239.28236	1553.74194	1843.27930				84.64918	1585.96094	1842.15833	-265.92267	1428.50793	1534.88037	413.18631	1221.64563	1886.73621	-313.83636	1408.21240	1228.78613	503.99017	971.17072	1738.99255	27.77376	1009.35754	1760.65381							99.91057	571.16614	1587.54297	265.87430	584.73303	1939.55249	218.91911	88.97615	1596.63428	60.93814	168.06035	2178.64624	
69	0.680	320.13922	1055.65039	1792.89771	-37.08652	1538.33606	1749.00330							-43.24984	1708.57642	1719.43823	241.36551	1554.53101	1832.67920				86.43210	1586.66187	1832.57617	-265.16660	1427.26538	1527.82019	416.18695	1222.29272	1875.27820	-315.00650	1405.43237	1221.18115	506.88785	971.73846	1725.17188	31.36392	1010.56622	1749.68445							102.55524	570.36816	1575.33179	275.09274	585.49902	1926.06592	220.00304	89.74065	1594.37720	65.65748	174.91019	2173.20093	
70	0.690	323.41165	1056.47705	1779.64075	-35.26510	1538.19275	1739.62976							-41.76599	1708.97363	1711.99341	243.95644	1555.24365	1822.28589				89.16957	1587.57007	1822.41125	-264.76590	1426.17627	1520.79431	418.93478	1223.59351	1863.41833	-316.79248	1402.96008	1213.78430	509.65021	973.48132	1714.54395	24.46931	1037.19751	1633.84766	66.71387	1072.56250	1861.34570				104.84248	571.15631	1568.10864	285.75549	585.14563	1911.88013	220.37839	90.45037	1592.53552	70.72613	183.37386	2167.30884	
71	0.700	326.71814	1056.70569	1766.13416	-33.11807	1538.80591	1731.44263							-40.26120	1709.44226	1701.53430	246.25514	1556.82214	1812.67578				91.26000	1587.75696	1813.69849	-263.58179	1424.80798	1512.57312	421.60709	1224.81470	1851.21497	-318.45016	1401.30664	1206.85132	512.75409	973.76477	1704.98718	26.56780	1037.73572	1625.19458	69.92018	1072.99597	1849.13025				106.72941	571.47467	1560.77356	295.61481	585.15790	1896.46509	220.39818	90.32323	1591.12598	75.92529	191.95406	2160.34277	
72	0.710	329.82764	1058.00671	1755.53564	-31.33344	1538.59351	1721.76831							-38.72761	1710.06775	1692.54517	248.47697	1557.91626	1802.26831				93.36776	1588.32336	1803.62207	-263.59137	1424.44373	1507.50012	424.35095	1226.22302	1839.43481	-320.37683	1398.76855	1199.99768	515.32526	974.47119	1695.14185				73.67849	1075.18359	1841.68469				109.00884	571.53864	1552.53918	306.72873	584.61847	1879.38074	219.92493	90.69881	1590.57153	81.52440	201.95079	2152.41162	
73	0.720	332.50638	1058.24817	1742.58228	-29.78904	1539.73657	1714.40283							-37.29289	1710.76379	1684.85474	250.45807	1559.37146	1791.17444				95.71940	1589.21033	1794.33081	-262.72501	1423.50745	1499.29895	427.22137	1227.34180	1828.07068	-321.65176	1397.60815	1192.88013	517.70142	976.20331	1682.68201	29.96178	1039.72791	1606.15820	77.06110	1075.49121	1829.94153				109.94913	571.75787	1544.28931	318.36621	586.08624	1864.29321	220.14359	90.96277	1587.67993	88.49735	211.94795	2142.38696	
74	0.730	335.17172	1058.29492	1729.10620	-27.91524	1539.57336	1704.99084							-36.33438	1710.85400	1675.05713	253.09486	1560.18323	1779.61633				98.07076	1590.17334	1784.14136	-261.87476	1422.38867	1491.98267	429.98282	1228.82275	1816.76123	-323.39355	1395.88660	1186.57910	519.90326	977.39380	1671.66199	30.52376	1041.86743	1596.02734	80.68136	1076.61914	1821.14624				110.34322	572.32782	1535.69434	330.81802	585.12048	1846.17847	219.88579	91.40761	1587.12231	96.41792	222.99226	2131.84692	
75	0.740	337.74197	1059.93726	1717.69934	-25.77474	1540.16724	1696.51221							-35.27382	1711.71082	1667.09363	255.28041	1561.61621	1769.67566				100.06070	1590.50391	1774.47668	-261.02377	1422.39148	1484.83765	432.66937	1230.19824	1805.29248	-324.90527	1394.79285	1179.97192	521.76447	978.07599	1660.39001	31.30554	1043.68481	1584.86816	83.79801	1076.51050	1811.98840				110.40628	573.34442	1528.58130	342.71152	585.35602	1828.45081	219.58318	91.70435	1586.78992	104.43803	235.21585	2120.70972	
76	0.750	339.56967	1059.77539	1705.93591	-23.79266	1540.04700	1687.44751							-33.30255	1712.18054	1658.11462	258.06259	1562.58374	1758.79321				102.81969	1590.63525	1765.89001	-260.05765	1421.67737	1477.89587	435.09622	1232.05042	1794.57581	-326.01605	1393.74048	1173.94189	524.26941	979.69391	1648.73767	32.43517	1043.44666	1577.38647	87.00563	1076.46423	1801.50830				110.86208	572.68829	1520.48303	353.79086	586.16486	1810.98254	219.70230	91.83708	1586.67749	113.28284	246.95929	2107.57935	
77	0.760	341.65680	1060.95105	1694.73279	-22.12523	1541.19653	1679.27881							-32.38388	1711.88440	1648.81714	260.16211	1564.16028	1747.95593				105.35285	1591.37769	1755.26489	-258.98837	1421.35754	1470.22388	437.95328	1233.86926	1783.21570	-328.18011	1392.57495	1167.12891	526.51123	980.95520	1637.29822	32.75837	1045.02307	1569.29626	91.07415	1077.02600	1793.05115				111.23827	572.54431	1513.48193	365.46368	585.45868	1791.62012	219.77515	91.97555	1586.55933	121.83946	259.69067	2094.25366	
78	0.770	343.12958	1062.05566	1681.60876	-20.05225	1541.17468	1670.47546							-30.64816	1712.96472	1641.12732	262.84720	1564.71753	1736.44373				108.16453	1592.31580	1745.79517	-258.84613	1421.14001	1463.98279	440.73959	1234.88074	1772.10974	-329.38654	1391.74927	1159.93701	528.94019	981.60730	1626.38855	33.25154	1045.53589	1559.47998	92.67977	1076.76477	1784.06006				111.70609	572.11334	1506.16016	375.75705	584.63647	1771.10632	220.98055	92.46558	1586.86987	132.20093	270.94205	2077.43408	
79	0.780	344.45700	1062.60876	1669.24109	-18.22075	1542.12158	1662.21069							-29.31717	1712.66248	1631.94312	265.46954	1565.59363	1726.53503				110.43965	1592.98743	1736.50415	-257.22308	1420.66968	1455.71643	443.69608	1235.70850	1761.02283	-330.88672	1390.50635	1153.98010	530.92444	982.50781	1613.13696	33.66494	1046.40686	1550.95422	95.67764	1077.42114	1775.69482				112.33466	572.54755	1499.95313	384.38953	585.73376	1750.98523	219.69968	93.39893	1586.01440	141.71394	283.11664	2062.49585	
80	0.790	346.44943	1064.32410	1659.64172	-16.01197	1542.78809	1653.34546							-28.07453	1713.85449	1623.79883	268.36148	1566.97363	1716.03015				112.83437	1594.67529	1727.38745	-257.06915	1421.40894	1450.46558	447.06427	1236.50671	1748.76514	-331.57269	1390.61145	1147.59351	533.13800	983.59442	1602.26355	34.28325	1047.40405	1542.37146	98.43288	1077.57349	1764.73792				113.72321	571.21057	1495.86426	392.51730	586.60364	1731.45935	223.41373	91.27174	1589.39966	152.01395	293.51309	2045.97839	
81	0.800	347.79947	1065.98706	1648.35901	-13.90196	1543.89832	1644.48035							-26.41309	1714.25745	1615.71179	270.39087	1567.45032	1705.67737				115.62094	1595.65796	1718.38953	-255.96660	1420.98926	1443.28906	450.14908	1237.47485	1736.70117	-332.52927	1388.71619	1141.39856	535.11987	984.56433	1590.03113	34.98755	1047.04907	1535.46643	100.75018	1079.05676	1759.02063				115.95928	571.18451	1492.79333	400.15961	586.45728	1709.43823	222.56760	92.39224	1587.23206	161.61435	302.32401	2030.38257	
